<?xml version="1.0" encoding="UTF-8" standalone="no"?>
<!-- Created with Inkscape (http://www.inkscape.org/) -->

<svg
   width="50"
   height="50"
   viewBox="0 0 13.229166 13.229167"
   version="1.1"
   id="svg8"
   inkscape:version="1.1.2 (0a00cf5339, 2022-02-04)"
   sodipodi:docname="ball.svg"
   inkscape:export-filename="/home/victor/Projects/sokoadventure-love/data/img/snow/ball.png"
   inkscape:export-xdpi="96"
   inkscape:export-ydpi="96"
   xmlns:inkscape="http://www.inkscape.org/namespaces/inkscape"
   xmlns:sodipodi="http://sodipodi.sourceforge.net/DTD/sodipodi-0.dtd"
   xmlns="http://www.w3.org/2000/svg"
   xmlns:svg="http://www.w3.org/2000/svg"
   xmlns:rdf="http://www.w3.org/1999/02/22-rdf-syntax-ns#"
   xmlns:cc="http://creativecommons.org/ns#"
   xmlns:dc="http://purl.org/dc/elements/1.1/">
  <defs
     id="defs2" />
  <sodipodi:namedview
     id="base"
     pagecolor="#ffffff"
     bordercolor="#666666"
     borderopacity="1.0"
     inkscape:pageopacity="0.0"
     inkscape:pageshadow="2"
     inkscape:zoom="3.9525416"
     inkscape:cx="27.956695"
     inkscape:cy="33.649235"
     inkscape:document-units="px"
     inkscape:current-layer="layer1"
     showgrid="false"
     units="px"
     inkscape:pagecheckerboard="true"
     inkscape:showpageshadow="false"
     inkscape:window-width="1920"
     inkscape:window-height="1012"
     inkscape:window-x="0"
     inkscape:window-y="0"
     inkscape:window-maximized="1"
     inkscape:snap-global="false" />
  <metadata
     id="metadata5">
    <rdf:RDF>
      <cc:Work
         rdf:about="">
        <dc:format>image/svg+xml</dc:format>
        <dc:type
           rdf:resource="http://purl.org/dc/dcmitype/StillImage" />
      </cc:Work>
    </rdf:RDF>
  </metadata>
  <g
     inkscape:label="Layer 1"
     inkscape:groupmode="layer"
     id="layer1"
     transform="translate(0,-263.13332)">
    <path
       style="fill:#444444;fill-opacity:1;stroke:#333333;stroke-width:0.529167;stroke-linecap:round;stroke-linejoin:round;stroke-miterlimit:4;stroke-dasharray:none;stroke-opacity:1"
       d="m 3.9195716,271.39661 c 0,0 0.075451,-1.5657 -0.5664343,-4.08371 0,0 0.9059817,-0.97873 3.2596436,-0.96931 2.3536641,0.008 3.3217613,1.04581 3.3217613,1.04581 0,0 -0.5830285,2.02695 -0.4949344,4.08898 0,0 1.6589112,0.25935 1.6500652,0.81207 -0.01442,0.90126 -4.5679545,0.96077 -4.5679545,0.96077 0,0 -4.3743262,-0.005 -4.3369443,-0.93466 0.03289,-0.81802 1.7347974,-0.91995 1.7347974,-0.91995 z"
       id="path82620"
       sodipodi:nodetypes="cccccscsc" />
    <path
       style="fill:#b5001b;fill-opacity:1;stroke:none;stroke-width:0.396875;stroke-linecap:round;stroke-linejoin:round;stroke-miterlimit:4;stroke-dasharray:none;stroke-opacity:1"
       d="m 3.5350543,271.12662 c 0,0 1.1132621,0.72211 3.2064279,0.72733 2.0931679,0.005 3.0515987,-0.66177 3.0515987,-0.66177 l 0.1563123,-1.33866 c 0,0 -1.0603743,0.72476 -3.1059362,0.69453 -2.0455587,-0.0303 -3.4567083,-0.73649 -3.4567083,-0.73649 z"
       id="path83579" />
    <path
       style="fill:none;fill-opacity:1;stroke:#d8aa00;stroke-width:0.396875;stroke-linecap:round;stroke-linejoin:bevel;stroke-miterlimit:4;stroke-dasharray:none;stroke-opacity:1"
       d="m 4.5919851,271.62127 c 0,0 0.731121,0.37808 1.7523723,0.32702 l 0.090909,-1.48657 c 0,0 -0.9697078,0.0221 -1.8630464,-0.30285 z"
       id="path84018"
       sodipodi:nodetypes="ccccc" />
    <path
       style="fill:none;fill-opacity:1;stroke:#d8aa00;stroke-width:0.396875;stroke-linecap:round;stroke-linejoin:bevel;stroke-miterlimit:4;stroke-dasharray:none;stroke-opacity:1"
       d="m 4.6098702,270.93882 0.8722752,0.18271"
       id="path85042" />
    <path
       style="fill:none;fill-opacity:1;stroke:#333333;stroke-width:0.529167;stroke-linecap:round;stroke-linejoin:bevel;stroke-miterlimit:4;stroke-dasharray:none;stroke-opacity:1"
       d="m 3.3979212,267.35832 c 0,0 0.6749651,0.71433 3.1224938,0.74447 2.4475267,0.0301 3.3570856,-0.65612 3.3570856,-0.65612"
       id="path86108"
       sodipodi:nodetypes="csc" />
  </g>
</svg>
