<?xml version="1.0" encoding="UTF-8" standalone="no"?>
<!-- Created with Inkscape (http://www.inkscape.org/) -->

<svg
   width="50"
   height="50"
   viewBox="0 0 13.229166 13.229167"
   version="1.1"
   id="svg8"
   inkscape:version="1.1.2 (0a00cf5339, 2022-02-04)"
   sodipodi:docname="aim.svg"
   inkscape:export-filename="/home/victor/Projects/sokoadventure-love/data/img/cave/aim.png"
   inkscape:export-xdpi="96"
   inkscape:export-ydpi="96"
   xmlns:inkscape="http://www.inkscape.org/namespaces/inkscape"
   xmlns:sodipodi="http://sodipodi.sourceforge.net/DTD/sodipodi-0.dtd"
   xmlns:xlink="http://www.w3.org/1999/xlink"
   xmlns="http://www.w3.org/2000/svg"
   xmlns:svg="http://www.w3.org/2000/svg"
   xmlns:rdf="http://www.w3.org/1999/02/22-rdf-syntax-ns#"
   xmlns:cc="http://creativecommons.org/ns#"
   xmlns:dc="http://purl.org/dc/elements/1.1/">
  <defs
     id="defs2">
    <linearGradient
       inkscape:collect="always"
       id="linearGradient117509">
      <stop
         style="stop-color:#f96902;stop-opacity:1"
         offset="0"
         id="stop117505" />
      <stop
         style="stop-color:#f6b805;stop-opacity:1"
         offset="0.21449806"
         id="stop123548" />
      <stop
         style="stop-color:#f48906;stop-opacity:1"
         offset="0.30752355"
         id="stop123678" />
      <stop
         style="stop-color:#f3c607;stop-opacity:1"
         offset="0.37818879"
         id="stop123872" />
      <stop
         style="stop-color:#f0980a;stop-opacity:1"
         offset="0.58808857"
         id="stop124130" />
      <stop
         style="stop-color:#eec20d;stop-opacity:1"
         offset="0.77549332"
         id="stop124260" />
      <stop
         style="stop-color:#ec740f;stop-opacity:1"
         offset="0.91677076"
         id="stop124582" />
      <stop
         style="stop-color:#ec9c11;stop-opacity:1"
         offset="1"
         id="stop117507" />
    </linearGradient>
    <linearGradient
       inkscape:collect="always"
       xlink:href="#linearGradient117509"
       id="linearGradient117511"
       x1="12.880544"
       y1="255.20671"
       x2="22.285154"
       y2="258.54532"
       gradientUnits="userSpaceOnUse"
       gradientTransform="translate(-10.583333,13.229166)" />
    <filter
       inkscape:collect="always"
       style="color-interpolation-filters:sRGB"
       id="filter125234"
       x="-0.1339651"
       y="-0.1365714"
       width="1.2679306"
       height="1.2731429">
      <feGaussianBlur
         inkscape:collect="always"
         stdDeviation="0.43682915"
         id="feGaussianBlur125236" />
    </filter>
  </defs>
  <sodipodi:namedview
     id="base"
     pagecolor="#ffffff"
     bordercolor="#666666"
     borderopacity="1.0"
     inkscape:pageopacity="0.0"
     inkscape:pageshadow="2"
     inkscape:zoom="3.9525416"
     inkscape:cx="-9.7405679"
     inkscape:cy="38.962272"
     inkscape:document-units="px"
     inkscape:current-layer="layer1"
     showgrid="false"
     units="px"
     inkscape:pagecheckerboard="true"
     inkscape:showpageshadow="false"
     inkscape:window-width="1920"
     inkscape:window-height="1012"
     inkscape:window-x="0"
     inkscape:window-y="0"
     inkscape:window-maximized="1"
     inkscape:snap-global="false" />
  <metadata
     id="metadata5">
    <rdf:RDF>
      <cc:Work
         rdf:about="">
        <dc:format>image/svg+xml</dc:format>
        <dc:type
           rdf:resource="http://purl.org/dc/dcmitype/StillImage" />
      </cc:Work>
    </rdf:RDF>
  </metadata>
  <g
     inkscape:label="Layer 1"
     inkscape:groupmode="layer"
     id="layer1"
     transform="translate(0,-263.13332)">
    <path
       style="opacity:1;fill:url(#linearGradient117511);fill-opacity:1;stroke:#666666;stroke-width:0.529167;stroke-linecap:round;stroke-linejoin:round;stroke-miterlimit:4;stroke-dasharray:none;stroke-opacity:1"
       d="m 3.5623331,265.82618 -0.146737,0.99315 -0.898157,1.04915 -0.5978643,0.35867 0.6338573,1.48718 0.514535,0.49002 -0.321881,1.09265 1.265859,1.26666 -0.0079,0.90229 -0.405019,1.12347 1.5909803,0.35398 0.852982,-0.41154 0.967468,0.54421 1.3799563,0.12978 1.8518933,3e-4 0.863439,-0.72609 0.61464,-1.24732 -0.915012,-1.72768 0.05921,-2.17966 0.588699,-1.10358 -0.550809,-0.80698 -1.0710233,-1.12719 -0.529529,-0.56632 -1.315989,0.0961 -0.9379803,0.44284 -1.178668,-0.40525 -1.4586733,-0.26269 z"
       id="path117423" />
    <path
       style="opacity:1;mix-blend-mode:normal;fill:none;fill-opacity:1;stroke:#ffc50c;stroke-width:0.529167;stroke-linecap:round;stroke-linejoin:round;stroke-miterlimit:4;stroke-dasharray:none;stroke-opacity:1;filter:url(#filter125234)"
       d="m 3.5623331,265.82618 -0.146737,0.99315 -0.898157,1.04915 -0.5978643,0.35867 0.6338573,1.48718 0.514535,0.49002 -0.321881,1.09265 1.265859,1.26666 -0.0079,0.90229 -0.405019,1.12347 1.5909803,0.35398 0.852982,-0.41154 0.967468,0.54421 1.3799563,0.12978 1.8518933,3e-4 0.863439,-0.72609 0.61464,-1.24732 -0.915012,-1.72768 0.05921,-2.17966 0.588699,-1.10358 -0.550809,-0.80698 -1.0710233,-1.12719 -0.529529,-0.56632 -1.315989,0.0961 -0.9379803,0.44284 -1.178668,-0.40525 -1.4586733,-0.26269 z"
       id="path125016" />
    <path
       style="opacity:1;fill:none;fill-opacity:1;stroke:#666666;stroke-width:0.529167;stroke-linecap:round;stroke-linejoin:round;stroke-miterlimit:4;stroke-dasharray:none;stroke-opacity:1"
       d="m 2.5500314,265.03141 0.018738,1.26985 -0.8970662,1.10723 -0.6422272,0.20706 -0.0683284,0.7059 0.5582359,1.19305 0.6081115,0.87119 -1.14164349,1.27148 1.14922689,0.46758 0.9706845,0.69595 -0.071639,0.63952 -0.9207629,1.41256 0.1857242,0.7886 1.1393945,0.34683 1.0949678,-0.14181 1.2334361,-0.48278 0.6818466,0.3541 1.482131,0.29819 2.9060058,-0.0996 0.990296,-0.74203 0.79115,-1.67749 -0.217778,-0.93128 -0.51877,-1.80691 -0.107794,-1.15222 0.982675,-1.27418 -0.577119,-0.38104 0.04616,-0.96925 -0.980267,-0.89274 -0.945542,-0.68118 -0.8150097,-0.94363 -0.6236324,0.47946 -0.9369441,0.0497 -0.8356552,0.4083 -1.3355603,-0.42838 -1.4503545,-0.78811 -1.3565701,0.71392 z"
       id="path117289" />
  </g>
</svg>
