<?xml version="1.0" encoding="UTF-8" standalone="no"?>
<!-- Created with Inkscape (http://www.inkscape.org/) -->

<svg
   width="50"
   height="50"
   viewBox="0 0 13.229166 13.229167"
   version="1.1"
   id="svg8"
   inkscape:version="1.1.2 (0a00cf5339, 2022-02-04)"
   sodipodi:docname="lock.svg"
   inkscape:export-filename="/home/victor/Projects/sokoadventure-love/data/img/lock.png"
   inkscape:export-xdpi="96"
   inkscape:export-ydpi="96"
   xmlns:inkscape="http://www.inkscape.org/namespaces/inkscape"
   xmlns:sodipodi="http://sodipodi.sourceforge.net/DTD/sodipodi-0.dtd"
   xmlns="http://www.w3.org/2000/svg"
   xmlns:svg="http://www.w3.org/2000/svg"
   xmlns:rdf="http://www.w3.org/1999/02/22-rdf-syntax-ns#"
   xmlns:cc="http://creativecommons.org/ns#"
   xmlns:dc="http://purl.org/dc/elements/1.1/">
  <defs
     id="defs2" />
  <sodipodi:namedview
     id="base"
     pagecolor="#ffffff"
     bordercolor="#666666"
     borderopacity="1.0"
     inkscape:pageopacity="0.0"
     inkscape:pageshadow="2"
     inkscape:zoom="1"
     inkscape:cx="21.5"
     inkscape:cy="29"
     inkscape:document-units="px"
     inkscape:current-layer="layer1"
     showgrid="false"
     units="px"
     inkscape:pagecheckerboard="true"
     inkscape:showpageshadow="false"
     inkscape:window-width="1920"
     inkscape:window-height="1012"
     inkscape:window-x="0"
     inkscape:window-y="0"
     inkscape:window-maximized="1"
     inkscape:snap-global="false" />
  <metadata
     id="metadata5">
    <rdf:RDF>
      <cc:Work
         rdf:about="">
        <dc:format>image/svg+xml</dc:format>
        <dc:type
           rdf:resource="http://purl.org/dc/dcmitype/StillImage" />
      </cc:Work>
    </rdf:RDF>
  </metadata>
  <g
     inkscape:label="Layer 1"
     inkscape:groupmode="layer"
     id="layer1"
     transform="translate(0,-263.13332)">
    <path
       style="opacity:1;fill:#a160b4;fill-opacity:1;stroke:#650082;stroke-width:0.529167;stroke-linecap:round;stroke-linejoin:round;stroke-miterlimit:4;stroke-dasharray:none;stroke-opacity:1"
       d="m 0.26458333,263.3979 0,4.7625 4.76249997,-4.7625 z"
       id="path23487"
       sodipodi:nodetypes="cccc" />
    <path
       style="opacity:1;fill:#a160b4;fill-opacity:1;stroke:#650082;stroke-width:0.529167;stroke-linecap:round;stroke-linejoin:round;stroke-miterlimit:4;stroke-dasharray:none;stroke-opacity:1"
       d="m 12.964545,263.3979 v 4.7625 l -4.7624992,-4.7625 z"
       id="path24317"
       sodipodi:nodetypes="cccc" />
    <path
       style="opacity:1;fill:#a160b4;fill-opacity:1;stroke:#650082;stroke-width:0.529167;stroke-linecap:round;stroke-linejoin:round;stroke-miterlimit:4;stroke-dasharray:none;stroke-opacity:1"
       d="m 0.26458333,276.09785 v -4.7625 l 4.76249997,4.7625 z"
       id="path24319"
       sodipodi:nodetypes="cccc" />
    <path
       style="opacity:1;fill:#a160b4;fill-opacity:1;stroke:#650082;stroke-width:0.529167;stroke-linecap:round;stroke-linejoin:round;stroke-miterlimit:4;stroke-dasharray:none;stroke-opacity:1"
       d="m 12.964545,276.09785 v -4.7625 l -4.7624992,4.7625 z"
       id="path24321"
       sodipodi:nodetypes="cccc" />
    <path
       id="path24345"
       style="opacity:1;fill:#a160b4;fill-opacity:1;stroke:#650082;stroke-width:2;stroke-linecap:round;stroke-linejoin:round;stroke-miterlimit:4;stroke-dasharray:none;stroke-opacity:1"
       d="M 25 10 A 14.999999 14.999999 0 0 0 16.589844 12.589844 L 22.478516 18.478516 A 6.9999992 6.9999992 0 0 1 25 18 A 6.9999992 6.9999992 0 0 1 27.527344 18.472656 L 33.416016 12.583984 A 14.999999 14.999999 0 0 0 25 10 z M 37.416016 16.583984 L 31.527344 22.472656 A 6.9999992 6.9999992 0 0 1 32 25 A 6.9999992 6.9999992 0 0 1 31.527344 27.527344 L 37.416016 33.416016 A 14.999999 14.999999 0 0 0 40 25 A 14.999999 14.999999 0 0 0 37.416016 16.583984 z M 12.589844 16.589844 A 14.999999 14.999999 0 0 0 10 25 A 14.999999 14.999999 0 0 0 12.589844 33.410156 L 18.478516 27.521484 A 6.9999992 6.9999992 0 0 1 18 25 A 6.9999992 6.9999992 0 0 1 18.478516 22.478516 L 12.589844 16.589844 z M 22.478516 31.521484 L 16.589844 37.410156 A 14.999999 14.999999 0 0 0 25 40 A 14.999999 14.999999 0 0 0 33.416016 37.416016 L 27.527344 31.527344 A 6.9999992 6.9999992 0 0 1 25 32 A 6.9999992 6.9999992 0 0 1 22.478516 31.521484 z "
       transform="matrix(0.26458333,0,0,0.26458333,0,263.13332)" />
  </g>
</svg>
