<?xml version="1.0" encoding="UTF-8" standalone="no"?>
<!-- Created with Inkscape (http://www.inkscape.org/) -->

<svg
   width="120"
   height="120"
   viewBox="0 0 31.749999 31.750001"
   version="1.1"
   id="svg8"
   inkscape:version="1.1.2 (0a00cf5339, 2022-02-04)"
   sodipodi:docname="back.svg"
   inkscape:export-filename="/home/victor/Projects/sokoadventure-love/data/img/forest/back.png"
   inkscape:export-xdpi="96"
   inkscape:export-ydpi="96"
   xmlns:inkscape="http://www.inkscape.org/namespaces/inkscape"
   xmlns:sodipodi="http://sodipodi.sourceforge.net/DTD/sodipodi-0.dtd"
   xmlns="http://www.w3.org/2000/svg"
   xmlns:svg="http://www.w3.org/2000/svg"
   xmlns:rdf="http://www.w3.org/1999/02/22-rdf-syntax-ns#"
   xmlns:cc="http://creativecommons.org/ns#"
   xmlns:dc="http://purl.org/dc/elements/1.1/">
  <defs
     id="defs2">
    <clipPath
       clipPathUnits="userSpaceOnUse"
       id="clipPath20090">
      <path
         id="path20092"
         style="opacity:1;fill:#79baff;fill-opacity:1;stroke:#5882ad;stroke-width:0.529169;stroke-linecap:round;stroke-linejoin:miter;stroke-miterlimit:4;stroke-dasharray:none;stroke-opacity:1"
         d="m 24.077082,263.3979 v 23.28333 H 47.360414 V 263.3979 Z m 4.762499,4.7625 h 13.758333 v 13.75833 H 28.839581 Z" />
    </clipPath>
  </defs>
  <sodipodi:namedview
     id="base"
     pagecolor="#ffffff"
     bordercolor="#666666"
     borderopacity="1.0"
     inkscape:pageopacity="0.0"
     inkscape:pageshadow="2"
     inkscape:zoom="1"
     inkscape:cx="37.5"
     inkscape:cy="75"
     inkscape:document-units="px"
     inkscape:current-layer="layer1"
     showgrid="false"
     units="px"
     inkscape:pagecheckerboard="true"
     inkscape:showpageshadow="false"
     inkscape:window-width="1920"
     inkscape:window-height="1012"
     inkscape:window-x="0"
     inkscape:window-y="0"
     inkscape:window-maximized="1"
     inkscape:snap-global="false" />
  <metadata
     id="metadata5">
    <rdf:RDF>
      <cc:Work
         rdf:about="">
        <dc:format>image/svg+xml</dc:format>
        <dc:type
           rdf:resource="http://purl.org/dc/dcmitype/StillImage" />
      </cc:Work>
    </rdf:RDF>
  </metadata>
  <g
     inkscape:label="Layer 1"
     inkscape:groupmode="layer"
     id="layer1"
     transform="translate(0,-263.13332)">
    <rect
       style="opacity:1;fill:#ffc0c0;fill-opacity:1;stroke:none;stroke-width:1.05833;stroke-linecap:round;stroke-linejoin:round;stroke-miterlimit:4;stroke-dasharray:none;stroke-opacity:1"
       id="rect44990"
       width="31.75"
       height="31.749998"
       x="0"
       y="263.13333" />
    <path
       sodipodi:type="star"
       style="opacity:1;fill:#ff9797;fill-opacity:1;stroke:none;stroke-width:5.93127;stroke-linecap:round;stroke-linejoin:round;stroke-miterlimit:4;stroke-dasharray:none;stroke-opacity:1"
       id="path41477"
       inkscape:flatsided="false"
       sodipodi:sides="4"
       sodipodi:cx="17.899242"
       sodipodi:cy="22.154997"
       sodipodi:r1="14.828194"
       sodipodi:r2="5.4835268"
       sodipodi:arg1="1.5707963"
       sodipodi:arg2="2.3561945"
       inkscape:rounded="0"
       inkscape:randomized="0"
       d="M 17.899243,36.983191 14.021804,26.032436 3.0710487,22.154997 14.021803,18.277558 17.899242,7.3268032 l 3.877439,10.9507548 10.950755,3.877438 -10.950755,3.87744 z"
       transform="matrix(0.17843261,0,0,0.17843261,-0.54797524,264.47181)" />
    <path
       sodipodi:type="star"
       style="opacity:1;fill:#ff9797;fill-opacity:1;stroke:none;stroke-width:5.93127;stroke-linecap:round;stroke-linejoin:round;stroke-miterlimit:4;stroke-dasharray:none;stroke-opacity:1"
       id="path44954"
       inkscape:flatsided="false"
       sodipodi:sides="4"
       sodipodi:cx="17.899242"
       sodipodi:cy="22.154997"
       sodipodi:r1="14.828194"
       sodipodi:r2="5.4835267"
       sodipodi:arg1="1.5707963"
       sodipodi:arg2="2.3561945"
       inkscape:rounded="0"
       inkscape:randomized="0"
       d="M 17.899243,36.983191 14.021803,26.032436 3.0710487,22.154997 14.021804,18.277558 17.899242,7.3268032 l 3.877439,10.9507548 10.950755,3.877438 -10.950755,3.87744 z"
       transform="matrix(0.17843261,0,0,0.17843261,4.7436914,264.47181)" />
    <path
       sodipodi:type="star"
       style="opacity:1;fill:#ff9797;fill-opacity:1;stroke:none;stroke-width:5.93127;stroke-linecap:round;stroke-linejoin:round;stroke-miterlimit:4;stroke-dasharray:none;stroke-opacity:1"
       id="path44956"
       inkscape:flatsided="false"
       sodipodi:sides="4"
       sodipodi:cx="17.899242"
       sodipodi:cy="22.154997"
       sodipodi:r1="14.828194"
       sodipodi:r2="5.4835267"
       sodipodi:arg1="1.5707963"
       sodipodi:arg2="2.3561945"
       inkscape:rounded="0"
       inkscape:randomized="0"
       d="M 17.899243,36.983191 14.021803,26.032436 3.0710487,22.154997 14.021804,18.277558 17.899242,7.3268032 l 3.877439,10.9507548 10.950755,3.877438 -10.950755,3.87744 z"
       transform="matrix(0.17843261,0,0,0.17843261,2.0978581,261.82598)" />
    <path
       sodipodi:type="star"
       style="opacity:1;fill:#ff9797;fill-opacity:1;stroke:none;stroke-width:5.93127;stroke-linecap:round;stroke-linejoin:round;stroke-miterlimit:4;stroke-dasharray:none;stroke-opacity:1"
       id="path44958"
       inkscape:flatsided="false"
       sodipodi:sides="4"
       sodipodi:cx="17.899242"
       sodipodi:cy="22.154997"
       sodipodi:r1="14.828194"
       sodipodi:r2="5.4835267"
       sodipodi:arg1="1.5707963"
       sodipodi:arg2="2.3561945"
       inkscape:rounded="0"
       inkscape:randomized="0"
       d="M 17.899243,36.983191 14.021803,26.032436 3.0710487,22.154997 14.021804,18.277558 17.899242,7.3268032 l 3.877439,10.9507548 10.950755,3.877438 -10.950755,3.87744 z"
       transform="matrix(0.17843261,0,0,0.17843261,2.0978581,267.11764)" />
    <path
       sodipodi:type="star"
       style="opacity:1;fill:#ff9797;fill-opacity:1;stroke:none;stroke-width:5.93127;stroke-linecap:round;stroke-linejoin:round;stroke-miterlimit:4;stroke-dasharray:none;stroke-opacity:1"
       id="path44960"
       inkscape:flatsided="false"
       sodipodi:sides="4"
       sodipodi:cx="17.899242"
       sodipodi:cy="22.154997"
       sodipodi:r1="14.828194"
       sodipodi:r2="5.4835267"
       sodipodi:arg1="1.5707963"
       sodipodi:arg2="2.3561945"
       inkscape:rounded="0"
       inkscape:randomized="0"
       d="M 17.899243,36.983191 14.021803,26.032436 3.0710487,22.154997 14.021804,18.277558 17.899242,7.3268032 l 3.877439,10.9507548 10.950755,3.877438 -10.950755,3.87744 z"
       transform="matrix(0.17843261,0,0,0.17843261,-3.1938086,259.18015)" />
    <path
       sodipodi:type="star"
       style="opacity:1;fill:#ff9797;fill-opacity:1;stroke:none;stroke-width:5.93127;stroke-linecap:round;stroke-linejoin:round;stroke-miterlimit:4;stroke-dasharray:none;stroke-opacity:1"
       id="path44966"
       inkscape:flatsided="false"
       sodipodi:sides="4"
       sodipodi:cx="17.899242"
       sodipodi:cy="22.154997"
       sodipodi:r1="14.828194"
       sodipodi:r2="5.4835267"
       sodipodi:arg1="1.5707963"
       sodipodi:arg2="2.3561945"
       inkscape:rounded="0"
       inkscape:randomized="0"
       d="M 17.899243,36.983191 14.021803,26.032436 3.0710487,22.154997 14.021804,18.277558 17.899242,7.3268032 l 3.877439,10.9507548 10.950755,3.877438 -10.950755,3.87744 z"
       transform="matrix(0.17843261,0,0,0.17843261,-3.1938086,269.76347)" />
    <path
       sodipodi:type="star"
       style="opacity:1;fill:#ff9797;fill-opacity:1;stroke:none;stroke-width:5.93127;stroke-linecap:round;stroke-linejoin:round;stroke-miterlimit:4;stroke-dasharray:none;stroke-opacity:1"
       id="path50287"
       inkscape:flatsided="false"
       sodipodi:sides="4"
       sodipodi:cx="17.899242"
       sodipodi:cy="22.154997"
       sodipodi:r1="14.828194"
       sodipodi:r2="5.4835267"
       sodipodi:arg1="1.5707963"
       sodipodi:arg2="2.3561945"
       inkscape:rounded="0"
       inkscape:randomized="0"
       d="M 17.899243,36.983191 14.021803,26.032436 3.0710487,22.154997 14.021804,18.277558 17.899242,7.3268032 l 3.877439,10.9507548 10.950755,3.877438 -10.950755,3.87744 z"
       transform="matrix(0.17843261,0,0,0.17843261,10.035358,264.47181)" />
    <path
       sodipodi:type="star"
       style="opacity:1;fill:#ff9797;fill-opacity:1;stroke:none;stroke-width:5.93127;stroke-linecap:round;stroke-linejoin:round;stroke-miterlimit:4;stroke-dasharray:none;stroke-opacity:1"
       id="path50289"
       inkscape:flatsided="false"
       sodipodi:sides="4"
       sodipodi:cx="17.899242"
       sodipodi:cy="22.154997"
       sodipodi:r1="14.828194"
       sodipodi:r2="5.4835267"
       sodipodi:arg1="1.5707963"
       sodipodi:arg2="2.3561945"
       inkscape:rounded="0"
       inkscape:randomized="0"
       d="M 17.899243,36.983191 14.021803,26.032436 3.0710487,22.154997 14.021804,18.277558 17.899242,7.3268032 l 3.877439,10.9507548 10.950755,3.877438 -10.950755,3.87744 z"
       transform="matrix(0.17843261,0,0,0.17843261,15.327024,264.47181)" />
    <path
       sodipodi:type="star"
       style="opacity:1;fill:#ff9797;fill-opacity:1;stroke:none;stroke-width:5.93127;stroke-linecap:round;stroke-linejoin:round;stroke-miterlimit:4;stroke-dasharray:none;stroke-opacity:1"
       id="path50291"
       inkscape:flatsided="false"
       sodipodi:sides="4"
       sodipodi:cx="17.899242"
       sodipodi:cy="22.154997"
       sodipodi:r1="14.828194"
       sodipodi:r2="5.4835267"
       sodipodi:arg1="1.5707963"
       sodipodi:arg2="2.3561945"
       inkscape:rounded="0"
       inkscape:randomized="0"
       d="M 17.899243,36.983191 14.021803,26.032436 3.0710487,22.154997 14.021804,18.277558 17.899242,7.3268032 l 3.877439,10.9507548 10.950755,3.877438 -10.950755,3.87744 z"
       transform="matrix(0.17843261,0,0,0.17843261,12.681191,261.82598)" />
    <path
       sodipodi:type="star"
       style="opacity:1;fill:#ff9797;fill-opacity:1;stroke:none;stroke-width:5.93127;stroke-linecap:round;stroke-linejoin:round;stroke-miterlimit:4;stroke-dasharray:none;stroke-opacity:1"
       id="path50293"
       inkscape:flatsided="false"
       sodipodi:sides="4"
       sodipodi:cx="17.899242"
       sodipodi:cy="22.154997"
       sodipodi:r1="14.828194"
       sodipodi:r2="5.4835267"
       sodipodi:arg1="1.5707963"
       sodipodi:arg2="2.3561945"
       inkscape:rounded="0"
       inkscape:randomized="0"
       d="M 17.899243,36.983191 14.021803,26.032436 3.0710487,22.154997 14.021804,18.277558 17.899242,7.3268032 l 3.877439,10.9507548 10.950755,3.877438 -10.950755,3.87744 z"
       transform="matrix(0.17843261,0,0,0.17843261,12.681191,267.11764)" />
    <path
       sodipodi:type="star"
       style="opacity:1;fill:#ff9797;fill-opacity:1;stroke:none;stroke-width:5.93127;stroke-linecap:round;stroke-linejoin:round;stroke-miterlimit:4;stroke-dasharray:none;stroke-opacity:1"
       id="path50295"
       inkscape:flatsided="false"
       sodipodi:sides="4"
       sodipodi:cx="17.899242"
       sodipodi:cy="22.154997"
       sodipodi:r1="14.828194"
       sodipodi:r2="5.4835267"
       sodipodi:arg1="1.5707963"
       sodipodi:arg2="2.3561945"
       inkscape:rounded="0"
       inkscape:randomized="0"
       d="M 17.899243,36.983191 14.021803,26.032436 3.0710487,22.154997 14.021804,18.277558 17.899242,7.3268032 l 3.877439,10.9507548 10.950755,3.877438 -10.950755,3.87744 z"
       transform="matrix(0.17843261,0,0,0.17843261,7.3895247,259.18015)" />
    <path
       sodipodi:type="star"
       style="opacity:1;fill:#ff9797;fill-opacity:1;stroke:none;stroke-width:5.93127;stroke-linecap:round;stroke-linejoin:round;stroke-miterlimit:4;stroke-dasharray:none;stroke-opacity:1"
       id="path50297"
       inkscape:flatsided="false"
       sodipodi:sides="4"
       sodipodi:cx="17.899242"
       sodipodi:cy="22.154997"
       sodipodi:r1="14.828194"
       sodipodi:r2="5.4835267"
       sodipodi:arg1="1.5707963"
       sodipodi:arg2="2.3561945"
       inkscape:rounded="0"
       inkscape:randomized="0"
       d="M 17.899243,36.983191 14.021803,26.032436 3.0710487,22.154997 14.021804,18.277558 17.899242,7.3268032 l 3.877439,10.9507548 10.950755,3.877438 -10.950755,3.87744 z"
       transform="matrix(0.17843261,0,0,0.17843261,7.3895247,269.76347)" />
    <path
       sodipodi:type="star"
       style="opacity:1;fill:#ff9797;fill-opacity:1;stroke:none;stroke-width:5.93127;stroke-linecap:round;stroke-linejoin:round;stroke-miterlimit:4;stroke-dasharray:none;stroke-opacity:1"
       id="path50299"
       inkscape:flatsided="false"
       sodipodi:sides="4"
       sodipodi:cx="17.899242"
       sodipodi:cy="22.154997"
       sodipodi:r1="14.828194"
       sodipodi:r2="5.4835267"
       sodipodi:arg1="1.5707963"
       sodipodi:arg2="2.3561945"
       inkscape:rounded="0"
       inkscape:randomized="0"
       d="M 17.899243,36.983191 14.021803,26.032436 3.0710487,22.154997 14.021804,18.277558 17.899242,7.3268032 l 3.877439,10.9507548 10.950755,3.877438 -10.950755,3.87744 z"
       transform="matrix(0.17843261,0,0,0.17843261,20.61869,264.47181)" />
    <path
       sodipodi:type="star"
       style="opacity:1;fill:#ff9797;fill-opacity:1;stroke:none;stroke-width:5.93127;stroke-linecap:round;stroke-linejoin:round;stroke-miterlimit:4;stroke-dasharray:none;stroke-opacity:1"
       id="path50301"
       inkscape:flatsided="false"
       sodipodi:sides="4"
       sodipodi:cx="17.899242"
       sodipodi:cy="22.154997"
       sodipodi:r1="14.828194"
       sodipodi:r2="5.4835267"
       sodipodi:arg1="1.5707963"
       sodipodi:arg2="2.3561945"
       inkscape:rounded="0"
       inkscape:randomized="0"
       d="M 17.899243,36.983191 14.021803,26.032436 3.0710487,22.154997 14.021804,18.277558 17.899242,7.3268032 l 3.877439,10.9507548 10.950755,3.877438 -10.950755,3.87744 z"
       transform="matrix(0.17843261,0,0,0.17843261,25.910356,264.47181)" />
    <path
       sodipodi:type="star"
       style="opacity:1;fill:#ff9797;fill-opacity:1;stroke:none;stroke-width:5.93127;stroke-linecap:round;stroke-linejoin:round;stroke-miterlimit:4;stroke-dasharray:none;stroke-opacity:1"
       id="path50303"
       inkscape:flatsided="false"
       sodipodi:sides="4"
       sodipodi:cx="17.899242"
       sodipodi:cy="22.154997"
       sodipodi:r1="14.828194"
       sodipodi:r2="5.4835267"
       sodipodi:arg1="1.5707963"
       sodipodi:arg2="2.3561945"
       inkscape:rounded="0"
       inkscape:randomized="0"
       d="M 17.899243,36.983191 14.021803,26.032436 3.0710487,22.154997 14.021804,18.277558 17.899242,7.3268032 l 3.877439,10.9507548 10.950755,3.877438 -10.950755,3.87744 z"
       transform="matrix(0.17843261,0,0,0.17843261,23.264523,261.82598)" />
    <path
       sodipodi:type="star"
       style="opacity:1;fill:#ff9797;fill-opacity:1;stroke:none;stroke-width:5.93127;stroke-linecap:round;stroke-linejoin:round;stroke-miterlimit:4;stroke-dasharray:none;stroke-opacity:1"
       id="path50305"
       inkscape:flatsided="false"
       sodipodi:sides="4"
       sodipodi:cx="17.899242"
       sodipodi:cy="22.154997"
       sodipodi:r1="14.828194"
       sodipodi:r2="5.4835267"
       sodipodi:arg1="1.5707963"
       sodipodi:arg2="2.3561945"
       inkscape:rounded="0"
       inkscape:randomized="0"
       d="M 17.899243,36.983191 14.021803,26.032436 3.0710487,22.154997 14.021804,18.277558 17.899242,7.3268032 l 3.877439,10.9507548 10.950755,3.877438 -10.950755,3.87744 z"
       transform="matrix(0.17843261,0,0,0.17843261,23.264523,267.11764)" />
    <path
       sodipodi:type="star"
       style="opacity:1;fill:#ff9797;fill-opacity:1;stroke:none;stroke-width:5.93127;stroke-linecap:round;stroke-linejoin:round;stroke-miterlimit:4;stroke-dasharray:none;stroke-opacity:1"
       id="path50307"
       inkscape:flatsided="false"
       sodipodi:sides="4"
       sodipodi:cx="17.899242"
       sodipodi:cy="22.154997"
       sodipodi:r1="14.828194"
       sodipodi:r2="5.4835267"
       sodipodi:arg1="1.5707963"
       sodipodi:arg2="2.3561945"
       inkscape:rounded="0"
       inkscape:randomized="0"
       d="M 17.899243,36.983191 14.021803,26.032436 3.0710487,22.154997 14.021804,18.277558 17.899242,7.3268032 l 3.877439,10.9507548 10.950755,3.877438 -10.950755,3.87744 z"
       transform="matrix(0.17843261,0,0,0.17843261,17.972857,259.18015)" />
    <path
       sodipodi:type="star"
       style="opacity:1;fill:#ff9797;fill-opacity:1;stroke:none;stroke-width:5.93127;stroke-linecap:round;stroke-linejoin:round;stroke-miterlimit:4;stroke-dasharray:none;stroke-opacity:1"
       id="path50309"
       inkscape:flatsided="false"
       sodipodi:sides="4"
       sodipodi:cx="17.899242"
       sodipodi:cy="22.154997"
       sodipodi:r1="14.828194"
       sodipodi:r2="5.4835267"
       sodipodi:arg1="1.5707963"
       sodipodi:arg2="2.3561945"
       inkscape:rounded="0"
       inkscape:randomized="0"
       d="M 17.899243,36.983191 14.021803,26.032436 3.0710487,22.154997 14.021804,18.277558 17.899242,7.3268032 l 3.877439,10.9507548 10.950755,3.877438 -10.950755,3.87744 z"
       transform="matrix(0.17843261,0,0,0.17843261,17.972857,269.76347)" />
    <path
       sodipodi:type="star"
       style="opacity:1;fill:#ff9797;fill-opacity:1;stroke:none;stroke-width:5.93127;stroke-linecap:round;stroke-linejoin:round;stroke-miterlimit:4;stroke-dasharray:none;stroke-opacity:1"
       id="path50311"
       inkscape:flatsided="false"
       sodipodi:sides="4"
       sodipodi:cx="17.899242"
       sodipodi:cy="22.154997"
       sodipodi:r1="14.828194"
       sodipodi:r2="5.4835267"
       sodipodi:arg1="1.5707963"
       sodipodi:arg2="2.3561945"
       inkscape:rounded="0"
       inkscape:randomized="0"
       d="M 17.899243,36.983191 14.021803,26.032436 3.0710487,22.154997 14.021804,18.277558 17.899242,7.3268032 l 3.877439,10.9507548 10.950755,3.877438 -10.950755,3.87744 z"
       transform="matrix(0.17843261,0,0,0.17843261,28.556189,259.18015)" />
    <path
       sodipodi:type="star"
       style="opacity:1;fill:#ff9797;fill-opacity:1;stroke:none;stroke-width:5.93127;stroke-linecap:round;stroke-linejoin:round;stroke-miterlimit:4;stroke-dasharray:none;stroke-opacity:1"
       id="path50313"
       inkscape:flatsided="false"
       sodipodi:sides="4"
       sodipodi:cx="17.899242"
       sodipodi:cy="22.154997"
       sodipodi:r1="14.828194"
       sodipodi:r2="5.4835267"
       sodipodi:arg1="1.5707963"
       sodipodi:arg2="2.3561945"
       inkscape:rounded="0"
       inkscape:randomized="0"
       d="M 17.899243,36.983191 14.021803,26.032436 3.0710487,22.154997 14.021804,18.277558 17.899242,7.3268032 l 3.877439,10.9507548 10.950755,3.877438 -10.950755,3.87744 z"
       transform="matrix(0.17843261,0,0,0.17843261,28.556189,269.76347)" />
    <path
       sodipodi:type="star"
       style="opacity:1;fill:#ff9797;fill-opacity:1;stroke:none;stroke-width:5.93127;stroke-linecap:round;stroke-linejoin:round;stroke-miterlimit:4;stroke-dasharray:none;stroke-opacity:1"
       id="path50347"
       inkscape:flatsided="false"
       sodipodi:sides="4"
       sodipodi:cx="17.899242"
       sodipodi:cy="22.154997"
       sodipodi:r1="14.828194"
       sodipodi:r2="5.4835267"
       sodipodi:arg1="1.5707963"
       sodipodi:arg2="2.3561945"
       inkscape:rounded="0"
       inkscape:randomized="0"
       d="M 17.899243,36.983191 14.021803,26.032436 3.0710487,22.154997 14.021804,18.277558 17.899242,7.3268032 l 3.877439,10.9507548 10.950755,3.877438 -10.950755,3.87744 z"
       transform="matrix(0.17843261,0,0,0.17843261,-0.54797524,275.05513)" />
    <path
       sodipodi:type="star"
       style="opacity:1;fill:#ff9797;fill-opacity:1;stroke:none;stroke-width:5.93127;stroke-linecap:round;stroke-linejoin:round;stroke-miterlimit:4;stroke-dasharray:none;stroke-opacity:1"
       id="path50349"
       inkscape:flatsided="false"
       sodipodi:sides="4"
       sodipodi:cx="17.899242"
       sodipodi:cy="22.154997"
       sodipodi:r1="14.828194"
       sodipodi:r2="5.4835267"
       sodipodi:arg1="1.5707963"
       sodipodi:arg2="2.3561945"
       inkscape:rounded="0"
       inkscape:randomized="0"
       d="M 17.899243,36.983191 14.021803,26.032436 3.0710487,22.154997 14.021804,18.277558 17.899242,7.3268032 l 3.877439,10.9507548 10.950755,3.877438 -10.950755,3.87744 z"
       transform="matrix(0.17843261,0,0,0.17843261,4.7436914,275.05513)" />
    <path
       sodipodi:type="star"
       style="opacity:1;fill:#ff9797;fill-opacity:1;stroke:none;stroke-width:5.93127;stroke-linecap:round;stroke-linejoin:round;stroke-miterlimit:4;stroke-dasharray:none;stroke-opacity:1"
       id="path50351"
       inkscape:flatsided="false"
       sodipodi:sides="4"
       sodipodi:cx="17.899242"
       sodipodi:cy="22.154997"
       sodipodi:r1="14.828194"
       sodipodi:r2="5.4835267"
       sodipodi:arg1="1.5707963"
       sodipodi:arg2="2.3561945"
       inkscape:rounded="0"
       inkscape:randomized="0"
       d="M 17.899243,36.983191 14.021803,26.032436 3.0710487,22.154997 14.021804,18.277558 17.899242,7.3268032 l 3.877439,10.9507548 10.950755,3.877438 -10.950755,3.87744 z"
       transform="matrix(0.17843261,0,0,0.17843261,2.0978581,272.4093)" />
    <path
       sodipodi:type="star"
       style="opacity:1;fill:#ff9797;fill-opacity:1;stroke:none;stroke-width:5.93127;stroke-linecap:round;stroke-linejoin:round;stroke-miterlimit:4;stroke-dasharray:none;stroke-opacity:1"
       id="path50353"
       inkscape:flatsided="false"
       sodipodi:sides="4"
       sodipodi:cx="17.899242"
       sodipodi:cy="22.154997"
       sodipodi:r1="14.828194"
       sodipodi:r2="5.4835267"
       sodipodi:arg1="1.5707963"
       sodipodi:arg2="2.3561945"
       inkscape:rounded="0"
       inkscape:randomized="0"
       d="M 17.899243,36.983191 14.021803,26.032436 3.0710487,22.154997 14.021804,18.277558 17.899242,7.3268032 l 3.877439,10.9507548 10.950755,3.877438 -10.950755,3.87744 z"
       transform="matrix(0.17843261,0,0,0.17843261,2.0978581,277.70096)" />
    <path
       sodipodi:type="star"
       style="opacity:1;fill:#ff9797;fill-opacity:1;stroke:none;stroke-width:5.93127;stroke-linecap:round;stroke-linejoin:round;stroke-miterlimit:4;stroke-dasharray:none;stroke-opacity:1"
       id="path50355"
       inkscape:flatsided="false"
       sodipodi:sides="4"
       sodipodi:cx="17.899242"
       sodipodi:cy="22.154997"
       sodipodi:r1="14.828194"
       sodipodi:r2="5.4835267"
       sodipodi:arg1="1.5707963"
       sodipodi:arg2="2.3561945"
       inkscape:rounded="0"
       inkscape:randomized="0"
       d="M 17.899243,36.983191 14.021803,26.032436 3.0710487,22.154997 14.021804,18.277558 17.899242,7.3268032 l 3.877439,10.9507548 10.950755,3.877438 -10.950755,3.87744 z"
       transform="matrix(0.17843261,0,0,0.17843261,-3.1938086,280.34679)" />
    <path
       sodipodi:type="star"
       style="opacity:1;fill:#ff9797;fill-opacity:1;stroke:none;stroke-width:5.93127;stroke-linecap:round;stroke-linejoin:round;stroke-miterlimit:4;stroke-dasharray:none;stroke-opacity:1"
       id="path50357"
       inkscape:flatsided="false"
       sodipodi:sides="4"
       sodipodi:cx="17.899242"
       sodipodi:cy="22.154997"
       sodipodi:r1="14.828194"
       sodipodi:r2="5.4835267"
       sodipodi:arg1="1.5707963"
       sodipodi:arg2="2.3561945"
       inkscape:rounded="0"
       inkscape:randomized="0"
       d="M 17.899243,36.983191 14.021803,26.032436 3.0710487,22.154997 14.021804,18.277558 17.899242,7.3268032 l 3.877439,10.9507548 10.950755,3.877438 -10.950755,3.87744 z"
       transform="matrix(0.17843261,0,0,0.17843261,10.035358,275.05513)" />
    <path
       sodipodi:type="star"
       style="opacity:1;fill:#ff9797;fill-opacity:1;stroke:none;stroke-width:5.93127;stroke-linecap:round;stroke-linejoin:round;stroke-miterlimit:4;stroke-dasharray:none;stroke-opacity:1"
       id="path50359"
       inkscape:flatsided="false"
       sodipodi:sides="4"
       sodipodi:cx="17.899242"
       sodipodi:cy="22.154997"
       sodipodi:r1="14.828194"
       sodipodi:r2="5.4835267"
       sodipodi:arg1="1.5707963"
       sodipodi:arg2="2.3561945"
       inkscape:rounded="0"
       inkscape:randomized="0"
       d="M 17.899243,36.983191 14.021803,26.032436 3.0710487,22.154997 14.021804,18.277558 17.899242,7.3268032 l 3.877439,10.9507548 10.950755,3.877438 -10.950755,3.87744 z"
       transform="matrix(0.17843261,0,0,0.17843261,15.327024,275.05513)" />
    <path
       sodipodi:type="star"
       style="opacity:1;fill:#ff9797;fill-opacity:1;stroke:none;stroke-width:5.93127;stroke-linecap:round;stroke-linejoin:round;stroke-miterlimit:4;stroke-dasharray:none;stroke-opacity:1"
       id="path50361"
       inkscape:flatsided="false"
       sodipodi:sides="4"
       sodipodi:cx="17.899242"
       sodipodi:cy="22.154997"
       sodipodi:r1="14.828194"
       sodipodi:r2="5.4835267"
       sodipodi:arg1="1.5707963"
       sodipodi:arg2="2.3561945"
       inkscape:rounded="0"
       inkscape:randomized="0"
       d="M 17.899243,36.983191 14.021803,26.032436 3.0710487,22.154997 14.021804,18.277558 17.899242,7.3268032 l 3.877439,10.9507548 10.950755,3.877438 -10.950755,3.87744 z"
       transform="matrix(0.17843261,0,0,0.17843261,12.681191,272.4093)" />
    <path
       sodipodi:type="star"
       style="opacity:1;fill:#ff9797;fill-opacity:1;stroke:none;stroke-width:5.93127;stroke-linecap:round;stroke-linejoin:round;stroke-miterlimit:4;stroke-dasharray:none;stroke-opacity:1"
       id="path50363"
       inkscape:flatsided="false"
       sodipodi:sides="4"
       sodipodi:cx="17.899242"
       sodipodi:cy="22.154997"
       sodipodi:r1="14.828194"
       sodipodi:r2="5.4835267"
       sodipodi:arg1="1.5707963"
       sodipodi:arg2="2.3561945"
       inkscape:rounded="0"
       inkscape:randomized="0"
       d="M 17.899243,36.983191 14.021803,26.032436 3.0710487,22.154997 14.021804,18.277558 17.899242,7.3268032 l 3.877439,10.9507548 10.950755,3.877438 -10.950755,3.87744 z"
       transform="matrix(0.17843261,0,0,0.17843261,12.681191,277.70096)" />
    <path
       sodipodi:type="star"
       style="opacity:1;fill:#ff9797;fill-opacity:1;stroke:none;stroke-width:5.93127;stroke-linecap:round;stroke-linejoin:round;stroke-miterlimit:4;stroke-dasharray:none;stroke-opacity:1"
       id="path50365"
       inkscape:flatsided="false"
       sodipodi:sides="4"
       sodipodi:cx="17.899242"
       sodipodi:cy="22.154997"
       sodipodi:r1="14.828194"
       sodipodi:r2="5.4835267"
       sodipodi:arg1="1.5707963"
       sodipodi:arg2="2.3561945"
       inkscape:rounded="0"
       inkscape:randomized="0"
       d="M 17.899243,36.983191 14.021803,26.032436 3.0710487,22.154997 14.021804,18.277558 17.899242,7.3268032 l 3.877439,10.9507548 10.950755,3.877438 -10.950755,3.87744 z"
       transform="matrix(0.17843261,0,0,0.17843261,7.3895247,280.34679)" />
    <path
       sodipodi:type="star"
       style="opacity:1;fill:#ff9797;fill-opacity:1;stroke:none;stroke-width:5.93127;stroke-linecap:round;stroke-linejoin:round;stroke-miterlimit:4;stroke-dasharray:none;stroke-opacity:1"
       id="path50367"
       inkscape:flatsided="false"
       sodipodi:sides="4"
       sodipodi:cx="17.899242"
       sodipodi:cy="22.154997"
       sodipodi:r1="14.828194"
       sodipodi:r2="5.4835267"
       sodipodi:arg1="1.5707963"
       sodipodi:arg2="2.3561945"
       inkscape:rounded="0"
       inkscape:randomized="0"
       d="M 17.899243,36.983191 14.021803,26.032436 3.0710487,22.154997 14.021804,18.277558 17.899242,7.3268032 l 3.877439,10.9507548 10.950755,3.877438 -10.950755,3.87744 z"
       transform="matrix(0.17843261,0,0,0.17843261,20.61869,275.05513)" />
    <path
       sodipodi:type="star"
       style="opacity:1;fill:#ff9797;fill-opacity:1;stroke:none;stroke-width:5.93127;stroke-linecap:round;stroke-linejoin:round;stroke-miterlimit:4;stroke-dasharray:none;stroke-opacity:1"
       id="path50369"
       inkscape:flatsided="false"
       sodipodi:sides="4"
       sodipodi:cx="17.899242"
       sodipodi:cy="22.154997"
       sodipodi:r1="14.828194"
       sodipodi:r2="5.4835267"
       sodipodi:arg1="1.5707963"
       sodipodi:arg2="2.3561945"
       inkscape:rounded="0"
       inkscape:randomized="0"
       d="M 17.899243,36.983191 14.021803,26.032436 3.0710487,22.154997 14.021804,18.277558 17.899242,7.3268032 l 3.877439,10.9507548 10.950755,3.877438 -10.950755,3.87744 z"
       transform="matrix(0.17843261,0,0,0.17843261,25.910356,275.05513)" />
    <path
       sodipodi:type="star"
       style="opacity:1;fill:#ff9797;fill-opacity:1;stroke:none;stroke-width:5.93127;stroke-linecap:round;stroke-linejoin:round;stroke-miterlimit:4;stroke-dasharray:none;stroke-opacity:1"
       id="path50371"
       inkscape:flatsided="false"
       sodipodi:sides="4"
       sodipodi:cx="17.899242"
       sodipodi:cy="22.154997"
       sodipodi:r1="14.828194"
       sodipodi:r2="5.4835267"
       sodipodi:arg1="1.5707963"
       sodipodi:arg2="2.3561945"
       inkscape:rounded="0"
       inkscape:randomized="0"
       d="M 17.899243,36.983191 14.021803,26.032436 3.0710487,22.154997 14.021804,18.277558 17.899242,7.3268032 l 3.877439,10.9507548 10.950755,3.877438 -10.950755,3.87744 z"
       transform="matrix(0.17843261,0,0,0.17843261,23.264523,272.4093)" />
    <path
       sodipodi:type="star"
       style="opacity:1;fill:#ff9797;fill-opacity:1;stroke:none;stroke-width:5.93127;stroke-linecap:round;stroke-linejoin:round;stroke-miterlimit:4;stroke-dasharray:none;stroke-opacity:1"
       id="path50373"
       inkscape:flatsided="false"
       sodipodi:sides="4"
       sodipodi:cx="17.899242"
       sodipodi:cy="22.154997"
       sodipodi:r1="14.828194"
       sodipodi:r2="5.4835267"
       sodipodi:arg1="1.5707963"
       sodipodi:arg2="2.3561945"
       inkscape:rounded="0"
       inkscape:randomized="0"
       d="M 17.899243,36.983191 14.021803,26.032436 3.0710487,22.154997 14.021804,18.277558 17.899242,7.3268032 l 3.877439,10.9507548 10.950755,3.877438 -10.950755,3.87744 z"
       transform="matrix(0.17843261,0,0,0.17843261,23.264523,277.70096)" />
    <path
       sodipodi:type="star"
       style="opacity:1;fill:#ff9797;fill-opacity:1;stroke:none;stroke-width:5.93127;stroke-linecap:round;stroke-linejoin:round;stroke-miterlimit:4;stroke-dasharray:none;stroke-opacity:1"
       id="path50375"
       inkscape:flatsided="false"
       sodipodi:sides="4"
       sodipodi:cx="17.899242"
       sodipodi:cy="22.154997"
       sodipodi:r1="14.828194"
       sodipodi:r2="5.4835267"
       sodipodi:arg1="1.5707963"
       sodipodi:arg2="2.3561945"
       inkscape:rounded="0"
       inkscape:randomized="0"
       d="M 17.899243,36.983191 14.021803,26.032436 3.0710487,22.154997 14.021804,18.277558 17.899242,7.3268032 l 3.877439,10.9507548 10.950755,3.877438 -10.950755,3.87744 z"
       transform="matrix(0.17843261,0,0,0.17843261,17.972857,280.34679)" />
    <path
       sodipodi:type="star"
       style="opacity:1;fill:#ff9797;fill-opacity:1;stroke:none;stroke-width:5.93127;stroke-linecap:round;stroke-linejoin:round;stroke-miterlimit:4;stroke-dasharray:none;stroke-opacity:1"
       id="path50377"
       inkscape:flatsided="false"
       sodipodi:sides="4"
       sodipodi:cx="17.899242"
       sodipodi:cy="22.154997"
       sodipodi:r1="14.828194"
       sodipodi:r2="5.4835267"
       sodipodi:arg1="1.5707963"
       sodipodi:arg2="2.3561945"
       inkscape:rounded="0"
       inkscape:randomized="0"
       d="M 17.899243,36.983191 14.021803,26.032436 3.0710487,22.154997 14.021804,18.277558 17.899242,7.3268032 l 3.877439,10.9507548 10.950755,3.877438 -10.950755,3.87744 z"
       transform="matrix(0.17843261,0,0,0.17843261,28.556189,280.34679)" />
    <path
       sodipodi:type="star"
       style="opacity:1;fill:#ff9797;fill-opacity:1;stroke:none;stroke-width:5.93127;stroke-linecap:round;stroke-linejoin:round;stroke-miterlimit:4;stroke-dasharray:none;stroke-opacity:1"
       id="path50379"
       inkscape:flatsided="false"
       sodipodi:sides="4"
       sodipodi:cx="17.899242"
       sodipodi:cy="22.154997"
       sodipodi:r1="14.828194"
       sodipodi:r2="5.4835267"
       sodipodi:arg1="1.5707963"
       sodipodi:arg2="2.3561945"
       inkscape:rounded="0"
       inkscape:randomized="0"
       d="M 17.899243,36.983191 14.021803,26.032436 3.0710487,22.154997 14.021804,18.277558 17.899242,7.3268032 l 3.877439,10.9507548 10.950755,3.877438 -10.950755,3.87744 z"
       transform="matrix(0.17843261,0,0,0.17843261,-0.54797524,285.63845)" />
    <path
       sodipodi:type="star"
       style="opacity:1;fill:#ff9797;fill-opacity:1;stroke:none;stroke-width:5.93127;stroke-linecap:round;stroke-linejoin:round;stroke-miterlimit:4;stroke-dasharray:none;stroke-opacity:1"
       id="path50381"
       inkscape:flatsided="false"
       sodipodi:sides="4"
       sodipodi:cx="17.899242"
       sodipodi:cy="22.154997"
       sodipodi:r1="14.828194"
       sodipodi:r2="5.4835267"
       sodipodi:arg1="1.5707963"
       sodipodi:arg2="2.3561945"
       inkscape:rounded="0"
       inkscape:randomized="0"
       d="M 17.899243,36.983191 14.021803,26.032436 3.0710487,22.154997 14.021804,18.277558 17.899242,7.3268032 l 3.877439,10.9507548 10.950755,3.877438 -10.950755,3.87744 z"
       transform="matrix(0.17843261,0,0,0.17843261,4.7436914,285.63845)" />
    <path
       sodipodi:type="star"
       style="opacity:1;fill:#ff9797;fill-opacity:1;stroke:none;stroke-width:5.93127;stroke-linecap:round;stroke-linejoin:round;stroke-miterlimit:4;stroke-dasharray:none;stroke-opacity:1"
       id="path50383"
       inkscape:flatsided="false"
       sodipodi:sides="4"
       sodipodi:cx="17.899242"
       sodipodi:cy="22.154997"
       sodipodi:r1="14.828194"
       sodipodi:r2="5.4835267"
       sodipodi:arg1="1.5707963"
       sodipodi:arg2="2.3561945"
       inkscape:rounded="0"
       inkscape:randomized="0"
       d="M 17.899243,36.983191 14.021803,26.032436 3.0710487,22.154997 14.021804,18.277558 17.899242,7.3268032 l 3.877439,10.9507548 10.950755,3.877438 -10.950755,3.87744 z"
       transform="matrix(0.17843261,0,0,0.17843261,2.0978581,282.99262)" />
    <path
       sodipodi:type="star"
       style="opacity:1;fill:#ff9797;fill-opacity:1;stroke:none;stroke-width:5.93127;stroke-linecap:round;stroke-linejoin:round;stroke-miterlimit:4;stroke-dasharray:none;stroke-opacity:1"
       id="path50385"
       inkscape:flatsided="false"
       sodipodi:sides="4"
       sodipodi:cx="17.899242"
       sodipodi:cy="22.154997"
       sodipodi:r1="14.828194"
       sodipodi:r2="5.4835267"
       sodipodi:arg1="1.5707963"
       sodipodi:arg2="2.3561945"
       inkscape:rounded="0"
       inkscape:randomized="0"
       d="M 17.899243,36.983191 14.021803,26.032436 3.0710487,22.154997 14.021804,18.277558 17.899242,7.3268032 l 3.877439,10.9507548 10.950755,3.877438 -10.950755,3.87744 z"
       transform="matrix(0.17843261,0,0,0.17843261,2.0978581,288.28428)" />
    <path
       sodipodi:type="star"
       style="opacity:1;fill:#ff9797;fill-opacity:1;stroke:none;stroke-width:5.93127;stroke-linecap:round;stroke-linejoin:round;stroke-miterlimit:4;stroke-dasharray:none;stroke-opacity:1"
       id="path50387"
       inkscape:flatsided="false"
       sodipodi:sides="4"
       sodipodi:cx="17.899242"
       sodipodi:cy="22.154997"
       sodipodi:r1="14.828194"
       sodipodi:r2="5.4835267"
       sodipodi:arg1="1.5707963"
       sodipodi:arg2="2.3561945"
       inkscape:rounded="0"
       inkscape:randomized="0"
       d="M 17.899243,36.983191 14.021803,26.032436 3.0710487,22.154997 14.021804,18.277558 17.899242,7.3268032 l 3.877439,10.9507548 10.950755,3.877438 -10.950755,3.87744 z"
       transform="matrix(0.17843261,0,0,0.17843261,-3.1938086,290.93011)" />
    <path
       sodipodi:type="star"
       style="opacity:1;fill:#ff9797;fill-opacity:1;stroke:none;stroke-width:5.93127;stroke-linecap:round;stroke-linejoin:round;stroke-miterlimit:4;stroke-dasharray:none;stroke-opacity:1"
       id="path50389"
       inkscape:flatsided="false"
       sodipodi:sides="4"
       sodipodi:cx="17.899242"
       sodipodi:cy="22.154997"
       sodipodi:r1="14.828194"
       sodipodi:r2="5.4835267"
       sodipodi:arg1="1.5707963"
       sodipodi:arg2="2.3561945"
       inkscape:rounded="0"
       inkscape:randomized="0"
       d="M 17.899243,36.983191 14.021803,26.032436 3.0710487,22.154997 14.021804,18.277558 17.899242,7.3268032 l 3.877439,10.9507548 10.950755,3.877438 -10.950755,3.87744 z"
       transform="matrix(0.17843261,0,0,0.17843261,10.035358,285.63845)" />
    <path
       sodipodi:type="star"
       style="opacity:1;fill:#ff9797;fill-opacity:1;stroke:none;stroke-width:5.93127;stroke-linecap:round;stroke-linejoin:round;stroke-miterlimit:4;stroke-dasharray:none;stroke-opacity:1"
       id="path50391"
       inkscape:flatsided="false"
       sodipodi:sides="4"
       sodipodi:cx="17.899242"
       sodipodi:cy="22.154997"
       sodipodi:r1="14.828194"
       sodipodi:r2="5.4835267"
       sodipodi:arg1="1.5707963"
       sodipodi:arg2="2.3561945"
       inkscape:rounded="0"
       inkscape:randomized="0"
       d="M 17.899243,36.983191 14.021803,26.032436 3.0710487,22.154997 14.021804,18.277558 17.899242,7.3268032 l 3.877439,10.9507548 10.950755,3.877438 -10.950755,3.87744 z"
       transform="matrix(0.17843261,0,0,0.17843261,15.327024,285.63845)" />
    <path
       sodipodi:type="star"
       style="opacity:1;fill:#ff9797;fill-opacity:1;stroke:none;stroke-width:5.93127;stroke-linecap:round;stroke-linejoin:round;stroke-miterlimit:4;stroke-dasharray:none;stroke-opacity:1"
       id="path50393"
       inkscape:flatsided="false"
       sodipodi:sides="4"
       sodipodi:cx="17.899242"
       sodipodi:cy="22.154997"
       sodipodi:r1="14.828194"
       sodipodi:r2="5.4835267"
       sodipodi:arg1="1.5707963"
       sodipodi:arg2="2.3561945"
       inkscape:rounded="0"
       inkscape:randomized="0"
       d="M 17.899243,36.983191 14.021803,26.032436 3.0710487,22.154997 14.021804,18.277558 17.899242,7.3268032 l 3.877439,10.9507548 10.950755,3.877438 -10.950755,3.87744 z"
       transform="matrix(0.17843261,0,0,0.17843261,12.681191,282.99262)" />
    <path
       sodipodi:type="star"
       style="opacity:1;fill:#ff9797;fill-opacity:1;stroke:none;stroke-width:5.93127;stroke-linecap:round;stroke-linejoin:round;stroke-miterlimit:4;stroke-dasharray:none;stroke-opacity:1"
       id="path50395"
       inkscape:flatsided="false"
       sodipodi:sides="4"
       sodipodi:cx="17.899242"
       sodipodi:cy="22.154997"
       sodipodi:r1="14.828194"
       sodipodi:r2="5.4835267"
       sodipodi:arg1="1.5707963"
       sodipodi:arg2="2.3561945"
       inkscape:rounded="0"
       inkscape:randomized="0"
       d="M 17.899243,36.983191 14.021803,26.032436 3.0710487,22.154997 14.021804,18.277558 17.899242,7.3268032 l 3.877439,10.9507548 10.950755,3.877438 -10.950755,3.87744 z"
       transform="matrix(0.17843261,0,0,0.17843261,12.681191,288.28428)" />
    <path
       sodipodi:type="star"
       style="opacity:1;fill:#ff9797;fill-opacity:1;stroke:none;stroke-width:5.93127;stroke-linecap:round;stroke-linejoin:round;stroke-miterlimit:4;stroke-dasharray:none;stroke-opacity:1"
       id="path50397"
       inkscape:flatsided="false"
       sodipodi:sides="4"
       sodipodi:cx="17.899242"
       sodipodi:cy="22.154997"
       sodipodi:r1="14.828194"
       sodipodi:r2="5.4835267"
       sodipodi:arg1="1.5707963"
       sodipodi:arg2="2.3561945"
       inkscape:rounded="0"
       inkscape:randomized="0"
       d="M 17.899243,36.983191 14.021803,26.032436 3.0710487,22.154997 14.021804,18.277558 17.899242,7.3268032 l 3.877439,10.9507548 10.950755,3.877438 -10.950755,3.87744 z"
       transform="matrix(0.17843261,0,0,0.17843261,7.3895247,290.93011)" />
    <path
       sodipodi:type="star"
       style="opacity:1;fill:#ff9797;fill-opacity:1;stroke:none;stroke-width:5.93127;stroke-linecap:round;stroke-linejoin:round;stroke-miterlimit:4;stroke-dasharray:none;stroke-opacity:1"
       id="path50399"
       inkscape:flatsided="false"
       sodipodi:sides="4"
       sodipodi:cx="17.899242"
       sodipodi:cy="22.154997"
       sodipodi:r1="14.828194"
       sodipodi:r2="5.4835267"
       sodipodi:arg1="1.5707963"
       sodipodi:arg2="2.3561945"
       inkscape:rounded="0"
       inkscape:randomized="0"
       d="M 17.899243,36.983191 14.021803,26.032436 3.0710487,22.154997 14.021804,18.277558 17.899242,7.3268032 l 3.877439,10.9507548 10.950755,3.877438 -10.950755,3.87744 z"
       transform="matrix(0.17843261,0,0,0.17843261,20.61869,285.63845)" />
    <path
       sodipodi:type="star"
       style="opacity:1;fill:#ff9797;fill-opacity:1;stroke:none;stroke-width:5.93127;stroke-linecap:round;stroke-linejoin:round;stroke-miterlimit:4;stroke-dasharray:none;stroke-opacity:1"
       id="path50401"
       inkscape:flatsided="false"
       sodipodi:sides="4"
       sodipodi:cx="17.899242"
       sodipodi:cy="22.154997"
       sodipodi:r1="14.828194"
       sodipodi:r2="5.4835267"
       sodipodi:arg1="1.5707963"
       sodipodi:arg2="2.3561945"
       inkscape:rounded="0"
       inkscape:randomized="0"
       d="M 17.899243,36.983191 14.021803,26.032436 3.0710487,22.154997 14.021804,18.277558 17.899242,7.3268032 l 3.877439,10.9507548 10.950755,3.877438 -10.950755,3.87744 z"
       transform="matrix(0.17843261,0,0,0.17843261,25.910356,285.63845)" />
    <path
       sodipodi:type="star"
       style="opacity:1;fill:#ff9797;fill-opacity:1;stroke:none;stroke-width:5.93127;stroke-linecap:round;stroke-linejoin:round;stroke-miterlimit:4;stroke-dasharray:none;stroke-opacity:1"
       id="path50403"
       inkscape:flatsided="false"
       sodipodi:sides="4"
       sodipodi:cx="17.899242"
       sodipodi:cy="22.154997"
       sodipodi:r1="14.828194"
       sodipodi:r2="5.4835267"
       sodipodi:arg1="1.5707963"
       sodipodi:arg2="2.3561945"
       inkscape:rounded="0"
       inkscape:randomized="0"
       d="M 17.899243,36.983191 14.021803,26.032436 3.0710487,22.154997 14.021804,18.277558 17.899242,7.3268032 l 3.877439,10.9507548 10.950755,3.877438 -10.950755,3.87744 z"
       transform="matrix(0.17843261,0,0,0.17843261,23.264523,282.99262)" />
    <path
       sodipodi:type="star"
       style="opacity:1;fill:#ff9797;fill-opacity:1;stroke:none;stroke-width:5.93127;stroke-linecap:round;stroke-linejoin:round;stroke-miterlimit:4;stroke-dasharray:none;stroke-opacity:1"
       id="path50405"
       inkscape:flatsided="false"
       sodipodi:sides="4"
       sodipodi:cx="17.899242"
       sodipodi:cy="22.154997"
       sodipodi:r1="14.828194"
       sodipodi:r2="5.4835267"
       sodipodi:arg1="1.5707963"
       sodipodi:arg2="2.3561945"
       inkscape:rounded="0"
       inkscape:randomized="0"
       d="M 17.899243,36.983191 14.021803,26.032436 3.0710487,22.154997 14.021804,18.277558 17.899242,7.3268032 l 3.877439,10.9507548 10.950755,3.877438 -10.950755,3.87744 z"
       transform="matrix(0.17843261,0,0,0.17843261,23.264523,288.28428)" />
    <path
       sodipodi:type="star"
       style="opacity:1;fill:#ff9797;fill-opacity:1;stroke:none;stroke-width:5.93127;stroke-linecap:round;stroke-linejoin:round;stroke-miterlimit:4;stroke-dasharray:none;stroke-opacity:1"
       id="path50407"
       inkscape:flatsided="false"
       sodipodi:sides="4"
       sodipodi:cx="17.899242"
       sodipodi:cy="22.154997"
       sodipodi:r1="14.828194"
       sodipodi:r2="5.4835267"
       sodipodi:arg1="1.5707963"
       sodipodi:arg2="2.3561945"
       inkscape:rounded="0"
       inkscape:randomized="0"
       d="M 17.899243,36.983191 14.021803,26.032436 3.0710487,22.154997 14.021804,18.277558 17.899242,7.3268032 l 3.877439,10.9507548 10.950755,3.877438 -10.950755,3.87744 z"
       transform="matrix(0.17843261,0,0,0.17843261,17.972857,290.93011)" />
    <path
       sodipodi:type="star"
       style="opacity:1;fill:#ff9797;fill-opacity:1;stroke:none;stroke-width:5.93127;stroke-linecap:round;stroke-linejoin:round;stroke-miterlimit:4;stroke-dasharray:none;stroke-opacity:1"
       id="path50409"
       inkscape:flatsided="false"
       sodipodi:sides="4"
       sodipodi:cx="17.899242"
       sodipodi:cy="22.154997"
       sodipodi:r1="14.828194"
       sodipodi:r2="5.4835267"
       sodipodi:arg1="1.5707963"
       sodipodi:arg2="2.3561945"
       inkscape:rounded="0"
       inkscape:randomized="0"
       d="M 17.899243,36.983191 14.021803,26.032436 3.0710487,22.154997 14.021804,18.277558 17.899242,7.3268032 l 3.877439,10.9507548 10.950755,3.877438 -10.950755,3.87744 z"
       transform="matrix(0.17843261,0,0,0.17843261,28.556189,290.93011)" />
  </g>
</svg>
